P3
50 50
255
0 0 0 0 0 0 0 0 0 0 0 0 0 0 0 0 0 0 0 0 0 0 0 0 0 0 0 0 0 0 0 0 0 0 0
0 0 0 0 0 0 0 0 0 0 0 0 0 0 0 0 0 0 0 0 0 0 0 0 0 0 0 0 0 0 0 0 0 0 0 0 0 0 0 0 0 0 0 0 0 0 0 0 0 0 0 0 0 0 0 0 0 0 0 0 0 0 0 0 0 0 0 0 0 0 0 0 0 0 0 0 0 0 0 0 0 0 0 0 0 0 0 0 0 0 0 0 0 0 0 0 0 0 0 0 0 0 0 0 0 0 0 0 0 0 0 0 0 0 0
0 0 0 0 0 0 0 0 0 0 0 0 0 0 0 0 0 0 0 0 0 0 0 0 0 0 0 0 0 0 0 0 0 0 0
0 0 0 0 0 0 0 0 0 0 0 0 0 0 0 0 0 0 0 0 0 0 0 0 0 0 0 0 0 0 0 0 0 0 0 0 0 0 0 0 0 0 0 0 0 0 0 0 0 0 0 0 0 0 0 0 0 0 0 0 0 0 0 0 0 0 0 0 0 0 0 0 0 0 0 0 0 0 0 0 0 0 0 0 0 0 0 0 0 0 0 0 0 0 0 0 0 0 0 0 0 0 0 0 0 0 0 0 0 0 0 0 0 0 0
0 0 0 0 0 0 0 0 0 0 0 0 0 0 0 0 0 0 0 0 0 0 0 0 0 0 0 0 0 0 0 0 0 0 0
0 0 0 0 0 0 0 0 0 0 0 0 0 0 0 0 0 0 0 0 0 0 0 0 0 0 0 0 0 0 0 0 0 0 0 0 0 0 0 0 0 0 0 0 0 0 0 0 0 0 0 0 0 0 0 0 0 0 0 0 0 0 0 0 0 0 0 0 0 0 0 0 0 0 0 0 0 0 0 0 0 0 0 0 0 0 0 0 0 0 0 0 0 0 0 0 0 0 0 0 0 0 0 0 0 0 0 0 0 0 0 0 0 0 0
0 0 0 0 0 0 0 0 0 0 0 0 0 0 0 0 0 0 0 0 0 0 0 0 0 0 0 0 0 0 0 0 0 0 0
0 0 0 0 0 0 0 0 0 0 0 0 0 0 0 0 0 0 0 0 0 0 0 0 0 0 0 0 0 0 0 0 0 0 0 0 0 0 0 0 0 0 0 0 0 0 0 0 0 0 0 0 0 0 0 0 0 0 0 0 0 0 0 0 0 0 0 0 0 0 0 0 0 0 0 0 0 0 0 0 0 0 0 0 0 0 0 0 0 0 0 0 0 0 0 0 0 0 0 0 0 0 0 0 0 0 0 0 0 0 0 0 0 0 0
0 0 0 0 0 0 0 0 0 0 0 0 0 0 0 0 0 0 0 0 0 0 0 0 0 0 0 0 0 0 0 0 0 0 0
0 0 0 0 0 0 0 0 0 0 0 0 0 0 0 0 0 0 0 0 0 0 212 42 212 217 43 217 216 43 216 213 42 213 208 41 208 203 40 203 198 39 198 191 38 191 184 36 184 175 35 175 166 33 166 154 30 154 136 27 136 0 0 0 0 0 0 0 0 0 0 0 0 0 0 0 0 0 0 0 0 0 0 0 0 0 0 0 0 0 0 0 0 0 0 0 0 0 0 0 0 0 0 0 0 0 0 0 0 0 0 0 0 0 0
0 0 0 0 0 0 0 0 0 0 0 0 0 0 0 0 0 0 0 0 0 0 0 0 0 0 0 0 0 0 0 0 0 0 0
0 0 0 0 0 0 0 0 0 0 0 0 0 0 0 0 231 46 231 232 46 232 230 46 230 228 45 228 224 44 224 220 44 220 215 43 215 210 42 210 204 40 204 198 39 198 191 38 191 183 36 183 175 35 175 167 33 167 157 31 157 146 29 146 131 26 131 0 0 0 0 0 0 0 0 0 0 0 0 0 0 0 0 0 0 0 0 0 0 0 0 0 0 0 0 0 0 0 0 0 0 0 0 0 0 0 0 0 0 0 0 0 0 0 0
0 0 0 0 0 0 0 0 0 0 0 0 0 0 0 0 0 0 0 0 0 0 0 0 0 0 0 0 0 0 0 0 0 0 0
0 0 0 0 0 0 0 0 0 0 239 47 239 241 48 241 240 48 240 238 47 238 235 47 235 231 46 231 227 45 227 223 44 223 218 43 218 212 42 212 207 41 207 200 40 200 194 38 194 187 37 187 180 36 180 172 34 172 163 32 163 153 30 153 143 28 143 131 26 131 115 23 115 0 0 0 0 0 0 0 0 0 0 0 0 0 0 0 0 0 0 0 0 0 0 0 0 0 0 0 0 0 0 0 0 0 0 0 0 0 0 0 0 0 0
0 0 0 0 0 0 0 0 0 0 0 0 0 0 0 0 0 0 0 0 0 0 0 0 0 0 0 0 0 0 0 0 0 0 0
0 0 0 0 241 48 241 246 49 246 246 49 246 245 49 245 243 48 243 240 48 240 237 47 237 233 46 233 228 45 228 224 44 224 219 43 219 213 42 213 208 41 208 202 40 202 195 39 195 188 37 188 181 36 181 174 34 174 166 33 166 157 31 157 148 29 148 137 27 137 126 25 126 112 22 112 92 18 92 0 0 0 0 0 0 0 0 0 0 0 0 0 0 0 0 0 0 0 0 0 0 0 0 0 0 0 0 0 0 0 0 0 0 0 0
0 0 0 0 0 0 0 0 0 0 0 0 0 0 0 0 0 0 0 0 0 0 0 0 0 0 0 0 0 0 0 0 0 0 0
0 247 49 247 250 50 250 250 50 250 249 49 249 247 49 247 244 48 244 241 48 241 237 47 237 233 46 233 228 45 228 224 44 224 218 43 218 213 42 213 207 41 207 202 40 202 195 39 195 189 37 189 182 36 182 175 35 175 167 33 167 159 31 159 150 30 150 140 28 140 130 26 130 118 23 118 105 21 105 87 17 87 0 0 0 0 0 0 0 0 0 0 0 0 0 0 0 0 0 0 0 0 0 0 0 0 0 0 0 0 0 0 0 0 0
0 0 0 0 0 0 0 0 0 0 0 0 0 0 0 0 0 0 0 0 0 0 0 0 0 0 0 0 0 0 0 0 0 250
50 250 252 50 252 253 50 253 252 50 252 250 50 250 247 49 247 244 48 244 240 48 240 236 47 236 232 46 232 227 45 227 223 44 223 218 43 218 212 42 212 207 41 207 201 40 201 195 39 195 188 37 188 181 36 181 174 34 174 167 33 167 159 31 159 151 30 151 142 28 142 132 26 132 122 24 122 110 22 110 96 19 96 79 15 79 0 0 0 0 0 0 0 0 0 0 0 0 0 0 0 0 0 0 0 0 0 0 0 0 0 0 0 0 0 0

0 0 0 0 0 0 0 0 0 0 0 0 0 0 0 0 0 0 0 0 0 0 0 0 0 0 0 0 0 0 250 50 250 254 50 254 254 50 254 253 50 253 251 50 251 249 49 249 246 49 246 243 48 243 239 47 239 235 47 235 230 46 230 226 45 226 221 44 221 216 43 216 211 42 211 205 41 205 199 39 199 193 38 193 187 37 187 180 36 180 173 34 173 166 33 166 158 31 158 150 30 150 142 28 142 133 26 133 123 24 123 112 22 112 100 20 100 86 17 86 68 13 68 0 0 0 0 0 0 0 0 0 0 0 0 0 0 0 0 0 0 0 0 0 0 0 0 0 0 0
0 0 0 0 0 0 0 0 0 0 0 0 0 0 0 0 0 0 0 0 0 0 0 0 0 0 0 250 50 250 254
50 254 254 50 254 254 50 254 252 50 252 250 50 250 247 49 247 244 48 244 241 48 241 237 47 237 233 46 233 228 45 228 224 44 224 219 43 219 214 42 214 209 41 209 203 40 203 197 39 197 191 38 191 185 37 185 179 35 179 172 34 172 165 33 165 157 31 157 149 29 149 141 28 141 132 26 132 123 24 123 113 22 113 102 20 102 89 17 89 75 15 75 56 11 56 0 0 0 0 0 0 0 0 0 0 0 0 0 0 0 0 0 0 0 0 0 0 0 0
0 0 0 0 0 0 0 0 0 0 0 0 0 0 0 0 0 0 0 0 0 0 0 0 247 49 247 252 50 252
254 50 254 254 50 254 253 50 253 251 50 251 248 49 248 245 49 245 242 48 242 238 47 238 235 47 235 230 46 230 226 45 226 221 44 221 217 43 217 212 42 212 206 41 206 201 40 201 195 39 195 189 37 189 183 36 183 176 35 176 170 34 170 163 32 163 155 31 155 148 29 148 140 28 140 131 26 131 122 24 122 113 22 113 102 20 102 90 18 90 77 15 77 62 12 62 41 8 41 0 0 0 0 0 0 0 0 0 0 0 0 0 0 0 0 0 0 0 0 0

0 0 0 0 0 0 0 0 0 0 0 0 0 0 0 0 0 0 0 0 0 241 48 241 250 50 250 253 50 253 253 50 253 252 50 252 251 50 251 249 49 249 246 49 246 243 48 243 239 47 239 236 47 236 232 46 232 228 45 228 223 44 223 219 43 219 214 42 214 209 41 209 204 40 204 198 39 198 192 38 192 186 37 186 180 36 180 174 34 174 167 33 167 161 32 161 153 30 153 146 29 146 138 27 138 130 26 130 121 24 121 112 22 112 101 20 101 90 18 90 78 15 78 64 12 64 47 9 47 25 5 25 0 0 0 0 0 0 0 0 0 0 0 0 0 0 0 0 0 0

0 0 0 0 0 0 0 0 0 0 0 0 0 0 0 0 0 0 0 0 0 246 49 246 250 50 250 252 50 252 251 50 251 250 50 250 248 49 248 246 49 246 243 48 243 240 48 240 237 47 237 233 46 233 229 45 229 225 45 225 220 44 220 216 43 216 211 42 211 206 41 206 200 40 200 195 39 195 189 37 189 184 36 184 178 35 178 171 34 171 165 33 165 158 31 158 151 30 151 143 28 143 136 27 136 128 25 128 119 23 119 110 22 110 100 20 100 90 18 90 78 15 78 65 13 65 50 10 50 31 6 31 0 0 0 0 0 0 0 0 0 0 0 0 0 0 0 0 0 0
0 0 0 0 0 0 0 0 0 0 0 0 0 0 0 0 0 0 239 47 239 246 49 246 249 49 249
250 50 250 249 49 249 247 49 247 245 49 245 243 48 243 240 48 240 237 47 237 234 47 234 234 50 234 232 51 232 223 46 223 217 43 217 212 42 212 207 41 207 202 40 202 197 39 197 192 38 192 186 37 186 180 36 180 174 34 174 168 33 168 162 32 162 155 31 155 148 29 148 141 28 141 133 26 133 125 25 125 117 23 117 108 21 108 98 19 98 88 17 88 77 15 77 65 13 65 51 10 51 34 6 34 25 5 25 0 0 0 0 0 0 0 0 0 0 0 0 0 0 0
0 0 0 0 0 0 0 0 0 0 0 0 0 0 0 0 0 0 241 48 241 245 49 245 247 49 247
247 49 247 246 49 246 244 48 244 242 48 242 239 47 239 237 47 237 234 47 234 246 62 246 255 123 255 255 112 255 230 55 230 214 43 214 209 41 209 204 40 204 199 39 199 194 38 194 188 37 188 183 36 183 177 35 177 171 34 171 165 33 165 158 31 158 152 30 152 145 29 145 138 27 138 130 26 130 122 24 122 114 22 114 105 21 105 96 19 96 86 17 86 75 15 75 64 12 64 50 10 50 35 7 35 25 5 25 0 0 0 0 0 0 0 0 0 0 0 0 0 0 0
0 0 0 0 0 0 0 0 0 0 0 0 0 0 0 231 46 231 240 48 240 243 48 243 244 48
244 244 48 244 243 48 243 241 48 241 238 47 238 236 47 236 233 46 233 234 50 234 255 123 255 255 255 255 255 170 255 230 58 230 210 42 210 205 41 205 200 40 200 195 39 195 190 38 190 185 37 185 179 35 179 173 34 173 167 33 167 161 32 161 155 31 155 148 29 148 141 28 141 134 26 134 127 25 127 119 23 119 111 22 111 102 20 102 93 18 93 84 16 84 73 14 73 62 12 62 49 9 49 35 7 35 25 5 25 25 5 25 0 0 0 0 0 0 0 0 0 0 0 0
0 0 0 0 0 0 0 0 0 0 0 0 0 0 0 232 46 232 238 47 238 240 48 240 241 48
241 240 48 240 239 47 239 237 47 237 235 47 235 232 46 232 229 45 229 232 51 232 255 112 255 255 170 255 255 91 255 214 46 214 206 41 206 201 40 201 196 39 196 191 38 191 186 37 186 181 36 181 175 35 175 170 34 170 164 32 164 158 31 158 151 30 151 145 29 145 138 27 138 131 26 131 123 24 123 116 23 116 108 21 108 99 19 99 90 18 90 81 16 81 70 14 70 59 11 59 47 9 47 33 6 33 25 5 25 25 5 25 0 0 0 0 0 0 0 0 0 0 0 0
0 0 0 0 0 0 0 0 0 0 0 0 212 42 212 230 46 230 235 47 235 237 47 237
237 47 237 236 47 236 235 47 235 233 46 233 230 46 230 228 45 228 225 45 225 223 46 223 230 55 230 230 58 230 214 46 214 206 41 206 201 40 201 197 39 197 192 38 192 187 37 187 182 36 182 177 35 177 171 34 171 165 33 165 160 32 160 154 30 154 147 29 147 141 28 141 134 26 134 127 25 127 120 24 120 112 22 112 104 20 104 96 19 96 87 17 87 77 15 77 67 13 67 56 11 56 44 8 44 31 6 31 25 5 25 25 5 25 25 5 25 0 0 0 0 0 0 0 0 0
0 0 0 0 0 0 0 0 0 0 0 0 217 43 217 228 45 228 231 46 231 233 46 233
233 46 233 232 46 232 230 46 230 228 45 228 226 45 226 223 44 223 220 44 220 217 43 217 214 43 214 210 42 210 206 41 206 201 40 201 197 39 197 192 38 192 188 37 188 183 36 183 178 35 178 172 34 172 167 33 167 161 32 161 155 31 155 149 29 149 143 28 143 137 27 137 130 26 130 123 24 123 116 23 116 108 21 108 100 20 100 92 18 92 83 16 83 74 14 74 64 12 64 53 10 53 41 8 41 28 5 28 25 5 25 25 5 25 25 5 25 0 0 0 0 0 0 0 0 0
0 0 0 0 0 0 0 0 0 0 0 0 216 43 216 224 44 224 227 45 227 228 45 228
228 45 228 227 45 227 226 45 226 224 44 224 221 44 221 219 43 219 216 43 216 212 42 212 209 41 209 205 41 205 201 40 201 197 39 197 192 38 192 188 37 188 183 36 183 178 35 178 173 34 173 168 33 168 162 32 162 157 31 157 151 30 151 145 29 145 139 27 139 132 26 132 126 25 126 119 23 119 111 22 111 104 20 104 96 19 96 88 17 88 79 15 79 70 14 70 60 12 60 49 9 49 38 7 38 25 5 25 25 5 25 25 5 25 25 5 25 0 0 0 0 0 0 0 0 0
0 0 0 0 0 0 0 0 0 0 0 0 213 42 213 220 44 220 223 44 223 224 44 224
224 44 224 223 44 223 221 44 221 219 43 219 217 43 217 214 42 214 211 42 211 207 41 207 204 40 204 200 40 200 196 39 196 192 38 192 188 37 188 183 36 183 178 35 178 174 34 174 168 33 168 163 32 163 158 31 158 152 30 152 146 29 146 140 28 140 134 26 134 128 25 128 121 24 121 114 22 114 107 21 107 99 19 99 92 18 92 83 16 83 75 15 75 66 13 66 56 11 56 45 9 45 34 6 34 25 5 25 25 5 25 25 5 25 25 5 25 0 0 0 0 0 0 0 0 0
0 0 0 0 0 0 0 0 0 0 0 0 208 41 208 215 43 215 218 43 218 219 43 219
218 43 218 218 43 218 216 43 216 214 42 214 212 42 212 209 41 209 206 41 206 202 40 202 199 39 199 195 39 195 191 38 191 187 37 187 183 36 183 178 35 178 174 34 174 169 33 169 164 32 164 158 31 158 153 30 153 147 29 147 142 28 142 136 27 136 129 25 129 123 24 123 116 23 116 110 22 110 102 20 102 95 19 95 87 17 87 79 15 79 70 14 70 61 12 61 51 10 51 41 8 41 29 5 29 25 5 25 25 5 25 25 5 25 25 5 25 0 0 0 0 0 0 0 0 0
0 0 0 0 0 0 0 0 0 0 0 0 203 40 203 210 42 210 212 42 212 213 42 213
213 42 213 212 42 212 211 42 211 209 41 209 206 41 206 204 40 204 200 40 200 197 39 197 194 38 194 190 38 190 186 37 186 182 36 182 178 35 178 173 34 173 168 33 168 164 32 164 159 31 159 153 30 153 148 29 148 142 28 142 137 27 137 131 26 131 125 25 125 118 23 118 112 22 112 105 21 105 97 19 97 90 18 90 82 16 82 74 14 74 65 13 65 56 11 56 47 9 47 36 7 36 25 5 25 25 5 25 25 5 25 25 5 25 25 5 25 0 0 0 0 0 0 0 0 0
0 0 0 0 0 0 0 0 0 0 0 0 198 39 198 204 40 204 207 41 207 208 41 208
207 41 207 207 41 207 205 41 205 203 40 203 201 40 201 198 39 198 195 39 195 192 38 192 188 37 188 185 37 185 181 36 181 177 35 177 172 34 172 168 33 168 163 32 163 158 31 158 153 30 153 148 29 148 143 28 143 137 27 137 132 26 132 126 25 126 119 23 119 113 22 113 106 21 106 100 20 100 92 18 92 85 17 85 77 15 77 69 13 69 60 12 60 51 10 51 41 8 41 31 6 31 25 5 25 25 5 25 25 5 25 25 5 25 25 5 25 0 0 0 0 0 0 0 0 0
0 0 0 0 0 0 0 0 0 0 0 0 191 38 191 198 39 198 200 40 200 202 40 202
202 40 202 201 40 201 199 39 199 197 39 197 195 39 195 192 38 192 189 37 189 186 37 186 183 36 183 179 35 179 175 35 175 171 34 171 167 33 167 162 32 162 158 31 158 153 30 153 148 29 148 143 28 143 137 27 137 132 26 132 126 25 126 120 24 120 114 22 114 108 21 108 101 20 101 94 18 94 87 17 87 80 16 80 72 14 72 64 12 64 55 11 55 46 9 46 36 7 36 26 5 26 25 5 25 25 5 25 25 5 25 25 5 25 25 5 25 0 0 0 0 0 0 0 0 0
0 0 0 0 0 0 0 0 0 0 0 0 184 36 184 191 38 191 194 38 194 195 39 195
195 39 195 195 39 195 193 38 193 191 38 191 189 37 189 186 37 186 184 36 184 180 36 180 177 35 177 173 34 173 170 34 170 165 33 165 161 32 161 157 31 157 152 30 152 147 29 147 142 28 142 137 27 137 132 26 132 126 25 126 121 24 121 115 23 115 109 21 109 102 20 102 96 19 96 89 17 89 82 16 82 74 14 74 66 13 66 58 11 58 49 9 49 40 8 40 30 6 30 25 5 25 25 5 25 25 5 25 25 5 25 25 5 25 25 5 25 0 0 0 0 0 0 0 0 0
0 0 0 0 0 0 0 0 0 0 0 0 175 35 175 183 36 183 187 37 187 188 37 188
189 37 189 188 37 188 187 37 187 185 37 185 183 36 183 180 36 180 178 35 178 174 34 174 171 34 171 167 33 167 164 32 164 160 32 160 155 31 155 151 30 151 146 29 146 142 28 142 137 27 137 132 26 132 126 25 126 121 24 121 115 23 115 109 21 109 103 20 103 96 19 96 90 18 90 83 16 83 76 15 76 68 13 68 60 12 60 52 10 52 43 8 43 34 6 34 25 5 25 25 5 25 25 5 25 25 5 25 25 5 25 25 5 25 25 5 25 0 0 0 0 0 0 0 0 0
0 0 0 0 0 0 0 0 0 0 0 0 166 33 166 175 35 175 180 36 180 181 36 181
182 36 182 181 36 181 180 36 180 179 35 179 176 35 176 174 34 174 171 34 171 168 33 168 165 33 165 161 32 161 158 31 158 154 30 154 149 29 149 145 29 145 140 28 140 136 27 136 131 26 131 126 25 126 120 24 120 115 23 115 109 21 109 103 20 103 97 19 97 91 18 91 84 16 84 77 15 77 70 14 70 62 12 62 54 10 54 46 9 46 37 7 37 28 5 28 25 5 25 25 5 25 25 5 25 25 5 25 25 5 25 25 5 25 25 5 25 0 0 0 0 0 0 0 0 0
0 0 0 0 0 0 0 0 0 0 0 0 154 30 154 167 33 167 172 34 172 174 34 174
175 35 175 174 34 174 173 34 173 172 34 172 170 34 170 167 33 167 165 33 165 162 32 162 158 31 158 155 31 155 151 30 151 147 29 147 143 28 143 139 27 139 134 26 134 129 25 129 125 25 125 119 23 119 114 22 114 109 21 109 103 20 103 97 19 97 91 18 91 84 16 84 78 15 78 71 14 71 63 12 63 56 11 56 48 9 48 40 8 40 31 6 31 25 5 25 25 5 25 25 5 25 25 5 25 25 5 25 25 5 25 25 5 25 25 5 25 0 0 0 0 0 0 0 0 0
0 0 0 0 0 0 0 0 0 0 0 0 136 27 136 157 31 157 163 32 163 166 33 166
167 33 167 167 33 167 166 33 166 165 33 165 163 32 163 161 32 161 158 31 158 155 31 155 152 30 152 148 29 148 145 29 145 141 28 141 137 27 137 132 26 132 128 25 128 123 24 123 118 23 118 113 22 113 108 21 108 102 20 102 96 19 96 91 18 91 84 16 84 78 15 78 71 14 71 64 12 64 57 11 57 49 9 49 41 8 41 33 6 33 25 5 25 25 5 25 25 5 25 25 5 25 25 5 25 25 5 25 25 5 25 25 5 25 25 5 25 0 0 0 0 0 0 0 0 0
0 0 0 0 0 0 0 0 0 0 0 0 0 0 0 146 29 146 153 30 153 157 31 157 159 31
159 159 31 159 158 31 158 157 31 157 155 31 155 153 30 153 151 30 151 148 29 148 145 29 145 141 28 141 138 27 138 134 26 134 130 26 130 126 25 126 121 24 121 116 23 116 112 22 112 106 21 106 101 20 101 96 19 96 90 18 90 84 16 84 78 15 78 71 14 71 64 12 64 57 11 57 50 10 50 42 8 42 34 6 34 26 5 26 25 5 25 25 5 25 25 5 25 25 5 25 25 5 25 25 5 25 25 5 25 25 5 25 0 0 0 0 0 0 0 0 0 0 0 0
0 0 0 0 0 0 0 0 0 0 0 0 0 0 0 131 26 131 143 28 143 148 29 148 150 30
150 151 30 151 150 30 150 149 29 149 148 29 148 146 29 146 143 28 143 141 28 141 138 27 138 134 26 134 131 26 131 127 25 127 123 24 123 119 23 119 114 22 114 110 22 110 105 21 105 100 20 100 94 18 94 89 17 89 83 16 83 77 15 77 71 14 71 64 12 64 57 11 57 50 10 50 43 8 43 35 7 35 27 5 27 25 5 25 25 5 25 25 5 25 25 5 25 25 5 25 25 5 25 25 5 25 25 5 25 25 5 25 0 0 0 0 0 0 0 0 0 0 0 0
0 0 0 0 0 0 0 0 0 0 0 0 0 0 0 0 0 0 131 26 131 137 27 137 140 28 140
142 28 142 142 28 142 141 28 141 140 28 140 138 27 138 136 27 136 133 26 133 130 26 130 127 25 127 123 24 123 120 24 120 116 23 116 111 22 111 107 21 107 102 20 102 97 19 97 92 18 92 87 17 87 82 16 82 76 15 76 70 14 70 63 12 63 57 11 57 50 10 50 43 8 43 35 7 35 27 5 27 25 5 25 25 5 25 25 5 25 25 5 25 25 5 25 25 5 25 25 5 25 25 5 25 25 5 25 0 0 0 0 0 0 0 0 0 0 0 0 0 0 0
0 0 0 0 0 0 0 0 0 0 0 0 0 0 0 0 0 0 115 23 115 126 25 126 130 26 130
132 26 132 133 26 133 132 26 132 131 26 131 130 26 130 128 25 128 125 25 125 122 24 122 119 23 119 116 23 116 112 22 112 108 21 108 104 20 104 99 19 99 95 19 95 90 18 90 85 17 85 80 16 80 74 14 74 68 13 68 62 12 62 56 11 56 49 9 49 42 8 42 35 7 35 27 5 27 25 5 25 25 5 25 25 5 25 25 5 25 25 5 25 25 5 25 25 5 25 25 5 25 25 5 25 25 5 25 0 0 0 0 0 0 0 0 0 0 0 0 0 0 0

0 0 0 0 0 0 0 0 0 0 0 0 0 0 0 0 0 0 0 0 0 112 22 112 118 23 118 122 24 122 123 24 123 123 24 123 122 24 122 121 24 121 119 23 119 117 23 117 114 22 114 111 22 111 108 21 108 104 20 104 100 20 100 96 19 96 92 18 92 87 17 87 82 16 82 77 15 77 72 14 72 66 13 66 60 12 60 54 10 54 48 9 48 41 8 41 34 6 34 27 5 27 25 5 25 25 5 25 25 5 25 25 5 25 25 5 25 25 5 25 25 5 25 25 5 25 25 5 25 25 5 25 0 0 0 0 0 0 0 0 0 0 0 0 0 0 0 0 0 0
0 0 0 0 0 0 0 0 0 0 0 0 0 0 0 0 0 0 0 0 0 92 18 92 105 21 105 110 22
110 112 22 112 113 22 113 113 22 113 112 22 112 110 22 110 108 21 108 105 21 105 102 20 102 99 19 99 96 19 96 92 18 92 88 17 88 83 16 83 79 15 79 74 14 74 69 13 69 64 12 64 58 11 58 52 10 52 46 9 46 40 8 40 33 6 33 26 5 26 25 5 25 25 5 25 25 5 25 25 5 25 25 5 25 25 5 25 25 5 25 25 5 25 25 5 25 25 5 25 25 5 25 0 0 0 0 0 0 0 0 0 0 0 0 0 0 0 0 0 0
0 0 0 0 0 0 0 0 0 0 0 0 0 0 0 0 0 0 0 0 0 0 0 0 87 17 87 96 19 96 100
20 100 102 20 102 102 20 102 101 20 101 100 20 100 98 19 98 96 19 96 93 18 93 90 18 90 87 17 87 83 16 83 79 15 79 75 15 75 70 14 70 65 13 65 60 12 60 55 11 55 49 9 49 43 8 43 37 7 37 31 6 31 25 5 25 25 5 25 25 5 25 25 5 25 25 5 25 25 5 25 25 5 25 25 5 25 25 5 25 25 5 25 25 5 25 25 5 25 0 0 0 0 0 0 0 0 0 0 0 0 0 0 0 0 0 0 0 0 0
0 0 0 0 0 0 0 0 0 0 0 0 0 0 0 0 0 0 0 0 0 0 0 0 0 0 0 79 15 79 86 17
86 89 17 89 90 18 90 90 18 90 90 18 90 88 17 88 86 17 86 84 16 84 81 16 81 77 15 77 74 14 74 70 14 70 66 13 66 61 12 61 56 11 56 51 10 51 46 9 46 40 8 40 34 6 34 28 5 28 25 5 25 25 5 25 25 5 25 25 5 25 25 5 25 25 5 25 25 5 25 25 5 25 25 5 25 25 5 25 25 5 25 25 5 25 0 0 0 0 0 0 0 0 0 0 0 0 0 0 0 0 0 0 0 0 0 0 0 0
0 0 0 0 0 0 0 0 0 0 0 0 0 0 0 0 0 0 0 0 0 0 0 0 0 0 0 0 0 0 68 13 68
75 15 75 77 15 77 78 15 78 78 15 78 77 15 77 75 15 75 73 14 73 70 14 70 67 13 67 64 12 64 60 12 60 56 11 56 51 10 51 47 9 47 41 8 41 36 7 36 30 6 30 25 5 25 25 5 25 25 5 25 25 5 25 25 5 25 25 5 25 25 5 25 25 5 25 25 5 25 25 5 25 25 5 25 25 5 25 25 5 25 0 0 0 0 0 0 0 0 0 0 0 0 0 0 0 0 0 0 0 0 0 0 0 0 0 0 0
0 0 0 0 0 0 0 0 0 0 0 0 0 0 0 0 0 0 0 0 0 0 0 0 0 0 0 0 0 0 0 0 0 56
11 56 62 12 62 64 12 64 65 13 65 65 13 65 64 12 64 62 12 62 59 11 59 56 11 56 53 10 53 49 9 49 45 9 45 41 8 41 36 7 36 31 6 31 26 5 26 25 5 25 25 5 25 25 5 25 25 5 25 25 5 25 25 5 25 25 5 25 25 5 25 25 5 25 25 5 25 25 5 25 25 5 25 25 5 25 0 0 0 0 0 0 0 0 0 0 0 0 0 0 0 0 0 0 0 0 0 0 0 0 0 0 0 0 0 0
0 0 0 0 0 0 0 0 0 0 0 0 0 0 0 0 0 0 0 0 0 0 0 0 0 0 0 0 0 0 0 0 0 0 0
0 41 8 41 47 9 47 50 10 50 51 10 51 50 10 50 49 9 49 47 9 47 44 8 44 41 8 41 38 7 38 34 6 34 29 5 29 25 5 25 25 5 25 25 5 25 25 5 25 25 5 25 25 5 25 25 5 25 25 5 25 25 5 25 25 5 25 25 5 25 25 5 25 25 5 25 25 5 25 25 5 25 0 0 0 0 0 0 0 0 0 0 0 0 0 0 0 0 0 0 0 0 0 0 0 0 0 0 0 0 0 0 0 0 0
0 0 0 0 0 0 0 0 0 0 0 0 0 0 0 0 0 0 0 0 0 0 0 0 0 0 0 0 0 0 0 0 0 0 0
0 0 0 0 25 5 25 31 6 31 34 6 34 35 7 35 35 7 35 33 6 33 31 6 31 28 5 28 25 5 25 25 5 25 25 5 25 25 5 25 25 5 25 25 5 25 25 5 25 25 5 25 25 5 25 25 5 25 25 5 25 25 5 25 25 5 25 25 5 25 25 5 25 25 5 25 25 5 25 0 0 0 0 0 0 0 0 0 0 0 0 0 0 0 0 0 0 0 0 0 0 0 0 0 0 0 0 0 0 0 0 0 0 0 0
0 0 0 0 0 0 0 0 0 0 0 0 0 0 0 0 0 0 0 0 0 0 0 0 0 0 0 0 0 0 0 0 0 0 0
0 0 0 0 0 0 0 0 0 0 25 5 25 25 5 25 25 5 25 25 5 25 25 5 25 25 5 25 25 5 25 25 5 25 25 5 25 25 5 25 25 5 25 25 5 25 25 5 25 25 5 25 25 5 25 25 5 25 25 5 25 25 5 25 25 5 25 25 5 25 25 5 25 0 0 0 0 0 0 0 0 0 0 0 0 0 0 0 0 0 0 0 0 0 0 0 0 0 0 0 0 0 0 0 0 0 0 0 0 0 0 0 0 0 0
0 0 0 0 0 0 0 0 0 0 0 0 0 0 0 0 0 0 0 0 0 0 0 0 0 0 0 0 0 0 0 0 0 0 0
0 0 0 0 0 0 0 0 0 0 0 0 0 0 0 0 25 5 25 25 5 25 25 5 25 25 5 25 25 5 25 25 5 25 25 5 25 25 5 25 25 5 25 25 5 25 25 5 25 25 5 25 25 5 25 25 5 25 25 5 25 25 5 25 25 5 25 0 0 0 0 0 0 0 0 0 0 0 0 0 0 0 0 0 0 0 0 0 0 0 0 0 0 0 0 0 0 0 0 0 0 0 0 0 0 0 0 0 0 0 0 0 0 0 0
0 0 0 0 0 0 0 0 0 0 0 0 0 0 0 0 0 0 0 0 0 0 0 0 0 0 0 0 0 0 0 0 0 0 0
0 0 0 0 0 0 0 0 0 0 0 0 0 0 0 0 0 0 0 0 0 0 25 5 25 25 5 25 25 5 25 25 5 25 25 5 25 25 5 25 25 5 25 25 5 25 25 5 25 25 5 25 25 5 25 25 5 25 25 5 25 0 0 0 0 0 0 0 0 0 0 0 0 0 0 0 0 0 0 0 0 0 0 0 0 0 0 0 0 0 0 0 0 0 0 0 0 0 0 0 0 0 0 0 0 0 0 0 0 0 0 0 0 0 0
0 0 0 0 0 0 0 0 0 0 0 0 0 0 0 0 0 0 0 0 0 0 0 0 0 0 0 0 0 0 0 0 0 0 0
0 0 0 0 0 0 0 0 0 0 0 0 0 0 0 0 0 0 0 0 0 0 0 0 0 0 0 0 0 0 0 0 0 0 0 0 0 0 0 0 0 0 0 0 0 0 0 0 0 0 0 0 0 0 0 0 0 0 0 0 0 0 0 0 0 0 0 0 0 0 0 0 0 0 0 0 0 0 0 0 0 0 0 0 0 0 0 0 0 0 0 0 0 0 0 0 0 0 0 0 0 0 0 0 0 0 0 0 0 0 0 0 0 0 0
0 0 0 0 0 0 0 0 0 0 0 0 0 0 0 0 0 0 0 0 0 0 0 0 0 0 0 0 0 0 0 0 0 0 0
0 0 0 0 0 0 0 0 0 0 0 0 0 0 0 0 0 0 0 0 0 0 0 0 0 0 0 0 0 0 0 0 0 0 0 0 0 0 0 0 0 0 0 0 0 0 0 0 0 0 0 0 0 0 0 0 0 0 0 0 0 0 0 0 0 0 0 0 0 0 0 0 0 0 0 0 0 0 0 0 0 0 0 0 0 0 0 0 0 0 0 0 0 0 0 0 0 0 0 0 0 0 0 0 0 0 0 0 0 0 0 0 0 0 0
0 0 0 0 0 0 0 0 0 0 0 0 0 0 0 0 0 0 0 0 0 0 0 0 0 0 0 0 0 0 0 0 0 0 0
0 0 0 0 0 0 0 0 0 0 0 0 0 0 0 0 0 0 0 0 0 0 0 0 0 0 0 0 0 0 0 0 0 0 0 0 0 0 0 0 0 0 0 0 0 0 0 0 0 0 0 0 0 0 0 0 0 0 0 0 0 0 0 0 0 0 0 0 0 0 0 0 0 0 0 0 0 0 0 0 0 0 0 0 0 0 0 0 0 0 0 0 0 0 0 0 0 0 0 0 0 0 0 0 0 0 0 0 0 0 0 0 0 0 0
